<svg width="375" height="456" viewBox="0 0 375 456" fill="none" xmlns="http://www.w3.org/2000/svg">
<path d="M322.28 22.2694C342.682 8.61447 369.038 7.61985 390.412 19.6982L552.979 111.565C573.383 123.096 586 144.718 586 168.155V300.671C586 325.298 572.083 347.809 550.053 358.817L386.04 440.767C366.949 450.307 344.39 449.866 325.686 439.588L179.698 359.372C158.915 347.952 146 326.12 146 302.405V174.961C146 153.269 156.82 133.007 174.847 120.943L322.28 22.2694Z" fill="#0B6832" fill-opacity="0.79"/>
<path d="M-0.805466 9.22402C-0.268543 8.39152 0.592419 8 1.58305 8H372C373.657 8 375 9.34315 375 11V171.7C375 173.917 372.58 175.34 370.512 174.543C254.134 129.72 105.637 524.194 1.14441e-05 345.5C-101.497 173.809 -10.4405 24.1633 -0.805466 9.22402Z" fill="#0C4624"/>
</svg>
