<svg width="150" height="73" viewBox="0 0 150 73" fill="none" xmlns="http://www.w3.org/2000/svg">
<g clip-path="url(#clip0)">
<path d="M51.5743 12.8389C53.1562 11.655 53.6119 9.59084 52.5923 8.22837C51.5726 6.8659 49.4637 6.7211 47.8818 7.90496C46.2999 9.08882 45.8442 11.153 46.8638 12.5155C47.8835 13.878 49.9925 14.0228 51.5743 12.8389Z" fill="#0C4624"/>
<path d="M21.8845 51.7253C23.466 50.5417 25.5745 50.6871 26.594 52.0493C27.6138 53.4119 27.1582 55.4751 25.5766 56.6587C23.9954 57.842 21.8869 57.6979 20.8671 56.3353C19.8476 54.9731 20.3033 52.9087 21.8845 51.7253Z" fill="#0C4624"/>
<path d="M58.1174 13.4997C57.8402 13.3603 57.5317 13.3342 57.2225 13.3573L57.2253 13.3356L56.9157 13.3789L45.8779 14.9242L45.4433 14.9857L45.0016 15.0479L44.9948 15.1513C44.8836 15.2082 44.7749 15.2746 44.6716 15.352L38.0315 20.3214L30.8577 22.1378C29.8422 22.3953 29.1157 23.3747 29.2405 24.3253C29.3654 25.275 30.2945 25.8364 31.3128 25.5782L38.9102 23.6539C39.188 23.5837 39.454 23.4558 39.6897 23.2793L44.7038 19.5268L43.8881 31.7664C41.8531 35.5915 39.3827 40.2227 38.6502 41.5607C38.4791 41.7918 38.3397 42.0613 38.2233 42.3757C38.1595 42.5465 38.1215 42.7185 38.0968 42.8875L39.69 40.8389L39.749 40.7653L44.6763 34.7582C44.6956 34.7889 44.7082 34.8198 44.7296 34.8484C44.7833 34.9202 44.8492 34.9856 44.9232 35.0445C45.0187 35.1207 45.1308 35.1802 45.2495 35.2302L40.3613 41.1906C40.344 41.21 40.3285 41.2304 40.3128 41.2502L38.2119 43.9531L31.0546 53.1669C30.1826 54.2876 30.3328 55.7497 31.3891 56.433C32.2433 56.9852 33.426 56.8587 34.3085 56.1983C34.5177 56.0417 34.7114 55.8552 34.8778 55.6398L43.0886 45.0728L44.1118 43.7549L46.8705 40.3915L54.1226 31.5507C54.2449 31.4006 54.3452 31.2448 54.4298 31.0854L54.5648 31.074L54.6473 30.52L54.7235 30.0068L54.9016 28.8204L54.9996 28.1735L56.6741 17.0232L62.0638 19.7288C62.2067 19.7998 62.3609 19.8513 62.5239 19.8793L71.6291 21.4633C72.1836 21.5591 72.7605 21.3916 73.2143 21.0521C73.5607 20.7928 73.8363 20.4342 73.9721 20.0144C74.2902 19.0459 73.7597 18.1214 72.7822 17.952L63.9226 16.4099L58.1174 13.4997Z" fill="#0C4624"/>
<path d="M47.783 40.4462L44.7352 44.1615L44.0152 45.0894C44.9017 45.1072 45.8543 45.137 46.7272 45.1755C47.3786 45.2059 48.0167 44.9814 48.5322 44.5955C49.0829 44.1835 49.4923 43.5859 49.6243 42.9084C49.8736 41.6416 49.0524 40.571 47.783 40.4462Z" fill="#0C4624"/>
</g>
<path d="M86.6998 38V25.9141H90.651C91.9625 25.9141 92.9476 26.1852 93.6061 26.7275C94.2701 27.2699 94.6022 28.0723 94.6022 29.1348C94.6022 29.6992 94.4417 30.2 94.1207 30.6372C93.7998 31.0688 93.3626 31.4036 92.8092 31.6416C93.4622 31.8242 93.9768 32.1729 94.3531 32.6875C94.735 33.1966 94.9259 33.8053 94.9259 34.5137C94.9259 35.5983 94.5745 36.4505 93.8717 37.0703C93.1689 37.6901 92.1756 38 90.8917 38H86.6998ZM88.2936 32.3472V36.6968H90.9249C91.6665 36.6968 92.2503 36.5059 92.6764 36.124C93.108 35.7367 93.3239 35.2054 93.3239 34.5303C93.3239 33.0749 92.5325 32.3472 90.9498 32.3472H88.2936ZM88.2936 31.0688H90.7008C91.3981 31.0688 91.9542 30.8945 92.3693 30.5459C92.7898 30.1973 93.0001 29.7241 93.0001 29.1265C93.0001 28.4624 92.8064 27.981 92.4191 27.6821C92.0317 27.3778 91.4423 27.2256 90.651 27.2256H88.2936V31.0688ZM96.6442 33.4263C96.6442 32.5464 96.8157 31.755 97.1588 31.0522C97.5074 30.3494 97.9889 29.8071 98.6031 29.4253C99.2229 29.0435 99.9285 28.8525 100.72 28.8525C101.943 28.8525 102.931 29.2759 103.683 30.1226C104.441 30.9692 104.82 32.0954 104.82 33.501V33.6089C104.82 34.4832 104.652 35.269 104.314 35.9663C103.982 36.658 103.503 37.1976 102.878 37.585C102.258 37.9723 101.544 38.166 100.736 38.166C99.519 38.166 98.5312 37.7427 97.7731 36.896C97.0205 36.0493 96.6442 34.9287 96.6442 33.5342V33.4263ZM98.1881 33.6089C98.1881 34.605 98.4178 35.4046 98.8771 36.0078C99.3419 36.611 99.9617 36.9126 100.736 36.9126C101.517 36.9126 102.137 36.6082 102.596 35.9995C103.055 35.3853 103.285 34.5275 103.285 33.4263C103.285 32.4412 103.05 31.6444 102.579 31.0356C102.114 30.4214 101.495 30.1143 100.72 30.1143C99.9617 30.1143 99.3502 30.4159 98.8854 31.019C98.4205 31.6222 98.1881 32.4855 98.1881 33.6089ZM106.339 33.4263C106.339 32.5464 106.511 31.755 106.854 31.0522C107.203 30.3494 107.684 29.8071 108.298 29.4253C108.918 29.0435 109.624 28.8525 110.415 28.8525C111.638 28.8525 112.626 29.2759 113.379 30.1226C114.137 30.9692 114.516 32.0954 114.516 33.501V33.6089C114.516 34.4832 114.347 35.269 114.009 35.9663C113.677 36.658 113.199 37.1976 112.573 37.585C111.954 37.9723 111.24 38.166 110.432 38.166C109.214 38.166 108.227 37.7427 107.468 36.896C106.716 36.0493 106.339 34.9287 106.339 33.5342V33.4263ZM107.883 33.6089C107.883 34.605 108.113 35.4046 108.572 36.0078C109.037 36.611 109.657 36.9126 110.432 36.9126C111.212 36.9126 111.832 36.6082 112.291 35.9995C112.75 35.3853 112.98 34.5275 112.98 33.4263C112.98 32.4412 112.745 31.6444 112.275 31.0356C111.81 30.4214 111.19 30.1143 110.415 30.1143C109.657 30.1143 109.046 30.4159 108.581 31.019C108.116 31.6222 107.883 32.4855 107.883 33.6089ZM118.948 33.8413L117.985 34.8457V38H116.45V25.25H117.985V32.9614L118.807 31.9736L121.605 29.0186H123.472L119.978 32.7705L123.879 38H122.078L118.948 33.8413ZM131.566 38H129.158V29.0186H131.566V38ZM129.017 26.6943C129.017 26.3346 129.136 26.0386 129.374 25.8062C129.618 25.5737 129.947 25.4575 130.362 25.4575C130.771 25.4575 131.098 25.5737 131.341 25.8062C131.585 26.0386 131.707 26.3346 131.707 26.6943C131.707 27.0596 131.582 27.3584 131.333 27.5908C131.09 27.8232 130.766 27.9395 130.362 27.9395C129.958 27.9395 129.631 27.8232 129.382 27.5908C129.139 27.3584 129.017 27.0596 129.017 26.6943ZM142.805 27.9312H139.103V38H136.612V27.9312H132.96V25.9141H142.805V27.9312Z" fill="black"/>
<defs>
<clipPath id="clip0">
<rect width="65" height="56" fill="white" transform="translate(-0.296997 28.056) rotate(-36.811)"/>
</clipPath>
</defs>
</svg>
